<?xml version="1.0" standalone="no"?><!DOCTYPE svg PUBLIC "-//W3C//DTD SVG 20010904//EN" "http://www.w3.org/TR/2001/REC-SVG-20010904/DTD/svg10.dtd"><svg xmlns="http://www.w3.org/2000/svg" version="1.0" width="400.000000pt" height="400.000000pt" viewBox="0 0 400.000000 400.000000" preserveAspectRatio="xMidYMid meet">

<g transform="translate(0.000000,400.000000) scale(0.100000,-0.100000)" fill="#ffffff" stroke="none">
<path d="M773 3776 c-12 -13 -26 -42 -31 -64 -6 -23 -23 -65 -39 -94 -29 -52 -30 -56 -29 -191 1 -118 -1 -136 -14 -131 -16 7 -59 22 -170 60 -38 13 -86 21 -118 20 -38 -1 -51 2 -47 12 6 16 0 15 -35 -3 -38 -20 -218 -229 -212 -247 1 -5 -5 -8 -13 -8 -8 0 -14 -3 -12 -8 1 -4 -10 -21 -26 -37 -33 -36 -39 -110 -9 -118 16 -4 16 -5 0 -6 -16 -1 -18 -16 -18 -160 0 -158 0 -160 23 -164 l22 -4 -22 -2 c-22 -1 -23 -5 -23 -90 l0 -90 33 -4 32 -4 -35 -2 c-29 -2 -32 -4 -15 -11 17 -7 17 -9 3 -9 -16 -1 -18 -12 -18 -86 l0 -84 103 -4 102 -3 -103 -2 -103 -2 3 -112 3 -112 217 -1 c120 -1 221 -5 225 -8 3 -4 -86 -7 -198 -8 -112 -1 -215 -4 -229 -9 l-25 -7 30 -8 c17 -4 65 -21 108 -37 54 -22 77 -36 77 -48 0 -9 25 -34 55 -55 75 -51 235 -240 235 -277 0 -9 9 -18 20 -21 13 -3 20 -13 19 -29 -2 -23 -2 -23 -6 -1 -2 13 -8 23 -12 23 -11 0 -1 -49 11 -56 6 -4 14 0 19 7 7 11 9 11 9 -2 0 -23 38 -55 102 -84 55 -25 63 -26 217 -23 87 2 157 0 154 -4 -2 -5 6 -8 19 -8 18 0 20 2 8 10 -13 8 -12 10 3 10 9 0 17 -5 17 -11 0 -8 4 -8 13 -1 13 11 63 15 190 12 42 0 82 2 88 6 6 3 34 8 62 10 28 3 54 9 57 14 3 5 26 12 50 16 25 4 51 10 59 14 8 4 27 4 43 -1 17 -5 26 -4 23 2 -4 5 8 9 24 9 17 0 31 4 31 8 0 5 16 8 35 7 19 0 35 3 35 7 0 4 17 8 38 8 21 0 78 9 128 21 49 11 98 21 109 21 11 0 74 8 140 19 209 32 331 49 411 56 67 5 75 8 59 20 -24 17 -17 16 35 -2 23 -8 56 -15 72 -15 16 0 27 -4 24 -9 -3 -5 11 -16 32 -24 44 -18 77 -43 135 -105 27 -28 49 -42 66 -42 16 0 48 -19 85 -50 33 -27 62 -47 64 -45 3 2 17 -4 31 -14 59 -42 132 -80 185 -97 31 -10 56 -20 56 -23 0 -3 39 -7 88 -7 74 -1 79 0 37 6 l-50 8 63 -2 c34 0 62 3 62 8 0 4 9 6 20 3 13 -3 18 -1 13 6 -4 7 0 8 11 4 18 -7 38 6 130 85 73 64 133 203 156 361 20 133 -13 259 -93 360 -60 76 -301 249 -321 230 -3 -4 -6 -1 -6 5 0 7 -3 11 -7 10 -5 0 -38 13 -75 30 -37 18 -72 32 -78 32 -5 0 -10 4 -10 10 0 5 -15 16 -34 24 -34 14 -35 15 -24 53 18 60 36 76 79 69 61 -10 126 4 143 29 8 12 17 57 20 99 3 42 8 81 11 87 10 15 -94 117 -148 144 -89 44 -188 32 -262 -33 -47 -42 -72 -85 -81 -140 -5 -35 -3 -42 17 -53 13 -7 27 -12 31 -11 4 1 17 -12 29 -29 16 -23 20 -40 16 -70 -8 -61 -21 -72 -64 -54 -20 9 -59 19 -87 24 -28 6 -92 24 -142 42 l-91 32 11 29 c8 21 7 33 -2 48 -17 27 -15 60 3 60 9 0 18 6 21 13 2 7 23 14 46 16 23 1 45 4 48 6 13 8 60 153 60 182 -1 19 -15 44 -45 77 l-44 49 -63 -2 c-117 -3 -122 -6 -158 -75 -40 -81 -46 -156 -13 -171 17 -7 20 -15 16 -36 -3 -15 0 -30 6 -33 6 -4 11 -32 11 -63 0 -52 -1 -55 -22 -50 -41 9 -172 60 -202 78 -16 10 -33 16 -38 13 -4 -3 -8 0 -8 5 0 6 -9 11 -20 11 -11 0 -37 9 -57 20 -21 11 -45 17 -54 15 -10 -3 -20 -1 -24 5 -3 5 3 10 14 10 27 0 34 15 37 80 1 30 3 58 3 63 2 14 31 7 31 -9 0 -12 10 -14 47 -12 44 3 49 6 70 43 47 84 43 199 -10 260 -28 32 -40 38 -84 42 -29 3 -63 3 -77 -1 -59 -15 -135 -113 -136 -175 0 -13 11 -39 25 -57 21 -27 22 -31 6 -27 -14 4 -21 -5 -31 -40 -6 -25 -9 -50 -5 -56 3 -7 4 -25 0 -41 l-6 -29 -40 14 c-22 8 -50 14 -62 13 -12 0 -56 11 -97 26 -41 15 -96 34 -122 42 -26 8 -53 21 -61 29 -8 8 -17 12 -20 9 -7 -7 -200 57 -212 70 -13 16 -65 36 -90 35 -27 -1 -59 9 -284 86 -153 52 -196 64 -202 53 -7 -10 -9 -9 -9 3 0 11 -30 26 -102 50 -57 18 -105 35 -107 36 -3 2 3 17 12 32 19 32 22 67 7 76 -5 3 -10 24 -10 45 0 26 -6 43 -17 50 -17 11 -17 11 0 6 9 -3 23 -8 30 -11 13 -6 17 1 73 149 32 84 36 126 13 126 -6 0 -8 9 -4 19 6 19 2 22 -55 37 -8 2 -25 -7 -37 -20z m-153 -536 c10 -6 2 -7 -25 -3 -49 7 -58 13 -19 13 16 0 36 -5 44 -10z m1039 -386 c10 -9 -35 -3 -49 6 -11 8 -7 9 15 4 17 -4 32 -8 34 -10z m-109 -4 c-8 -5 -19 -10 -25 -10 -5 0 -3 5 5 10 8 5 20 10 25 10 6 0 3 -5 -5 -10z m-1482 -37 c-10 -2 -26 -2 -35 0 -10 3 -2 5 17 5 19 0 27 -2 18 -5z m15 -30 c-13 -2 -33 -2 -45 0 -13 2 -3 4 22 4 25 0 35 -2 23 -4z m600 -160 c-7 -2 -19 -2 -25 0 -7 3 -2 5 12 5 14 0 19 -2 13 -5z m-596 -9 c-3 -3 -12 -4 -19 -1 -8 3 -5 6 6 6 11 1 17 -2 13 -5z m211 -371 c-10 -2 -26 -2 -35 0 -10 3 -2 5 17 5 19 0 27 -2 18 -5z m789 1 c-3 -3 -12 -4 -19 -1 -8 3 -5 6 6 6 11 1 17 -2 13 -5z m-894 -21 c-35 -2 -91 -2 -125 0 -35 2 -7 3 62 3 69 0 97 -1 63 -3z m120 0 c-7 -2 -19 -2 -25 0 -7 3 -2 5 12 5 14 0 19 -2 13 -5z m1102 -313 c-12 -13 -21 -17 -25 -10 -5 7 -11 6 -19 -4 -7 -8 -10 -19 -7 -24 2 -4 -8 -19 -25 -32 -33 -28 -37 -46 -11 -53 9 -3 3 -5 -15 -6 -17 0 -35 -5 -38 -11 -8 -13 -45 -13 -45 1 0 5 5 7 10 4 6 -4 19 -4 28 0 15 6 15 8 -3 15 -19 8 -19 9 2 9 15 1 36 19 63 55 40 56 64 75 89 76 11 0 10 -5 -4 -20z m122 -14 c-21 -32 -2 -52 27 -30 28 20 38 17 31 -7 -7 -20 -6 -20 17 -5 14 9 28 13 32 9 4 -5 6 -2 4 6 -1 7 3 16 10 18 7 3 10 -1 6 -10 -4 -11 1 -13 19 -10 35 7 40 -9 14 -45 -26 -37 -47 -48 -47 -25 0 9 3 13 7 10 8 -8 33 11 33 25 0 6 -8 4 -17 -3 -14 -10 -13 -8 2 10 l20 24 -20 -7 c-11 -5 -44 -14 -73 -21 -45 -11 -54 -10 -61 3 -5 9 -14 12 -21 7 -9 -6 -9 -9 1 -16 10 -6 6 -9 -13 -10 -30 -2 -35 -3 -58 -11 -39 -15 -51 -17 -45 -8 9 14 -18 12 -35 -2 -8 -7 -4 -1 9 15 28 31 43 35 35 10 -4 -12 1 -10 15 7 14 16 19 19 15 8 -11 -33 14 -18 58 32 47 54 59 63 35 26z m199 -3 c-10 -11 -37 -12 -30 -2 3 5 12 9 21 9 9 0 13 -3 9 -7z m176 -178 c-12 -15 -18 -33 -15 -41 3 -7 -2 -17 -11 -20 -9 -3 -14 -10 -11 -14 3 -4 -1 -8 -8 -7 -43 1 -63 -7 -93 -40 -37 -40 -57 -39 -30 2 33 50 9 48 -34 -4 -26 -31 -47 -48 -53 -42 -12 12 14 53 30 47 7 -3 15 -1 18 4 8 13 -18 19 -38 8 -9 -5 -16 -5 -15 -1 2 4 -2 8 -7 8 -5 0 -9 -3 -7 -7 3 -11 -16 -10 -22 1 -3 5 5 16 19 25 29 19 36 20 29 3 -3 -9 6 -12 36 -9 22 2 38 8 35 13 -3 4 -13 5 -22 2 -11 -4 -14 -3 -9 5 9 15 36 16 36 2 0 -7 8 -6 23 2 12 7 30 13 39 14 14 1 15 -2 6 -19 -15 -28 66 35 95 74 11 16 23 27 25 24 2 -2 -5 -16 -16 -30z m-608 -57 c-16 -27 -104 -129 -104 -121 0 5 13 24 30 43 31 37 39 56 18 44 -7 -4 -2 5 11 19 25 27 59 38 45 15z m62 -27 c-9 -10 -16 -23 -16 -29 0 -6 -9 -13 -19 -17 -11 -3 -22 -13 -25 -21 -4 -11 3 -9 25 6 16 12 33 19 36 16 3 -3 13 0 22 7 14 11 14 10 2 -5 -7 -10 -17 -16 -21 -13 -5 3 -11 1 -14 -3 -10 -17 29 -7 61 16 36 26 58 29 49 7 -5 -13 -2 -14 17 -3 12 7 25 11 30 10 4 -1 6 3 5 10 -2 6 5 14 15 16 16 3 17 1 8 -17 -10 -18 -9 -20 6 -14 12 4 15 3 8 -5 -16 -17 -105 -25 -105 -10 -1 8 -7 5 -15 -6 -9 -11 -15 -14 -15 -7 0 8 -9 5 -26 -8 -15 -11 -31 -18 -37 -14 -6 4 -7 1 -3 -6 5 -8 0 -14 -13 -18 -12 -3 -21 -10 -21 -15 0 -5 6 -6 13 -2 6 4 4 -1 -5 -11 -27 -29 -34 -9 -10 24 l22 30 -33 -1 c-17 0 -38 -5 -45 -11 -7 -5 -15 -7 -18 -4 -3 3 4 10 15 17 12 6 21 17 21 25 0 8 6 15 13 15 7 0 23 14 36 30 12 17 26 28 32 25 5 -4 9 2 10 12 0 11 3 13 6 5 3 -7 -2 -21 -11 -31z m-176 18 c0 -5 -4 -8 -9 -5 -5 3 -14 -1 -21 -9 -7 -8 -17 -15 -22 -15 -11 0 33 39 45 40 4 0 7 -5 7 -11z m34 -9 c-12 -5 -43 -33 -70 -64 -63 -72 -77 -72 -23 -1 23 30 45 53 49 50 4 -3 13 2 20 10 7 8 20 15 29 14 11 0 10 -3 -5 -9z m382 -23 c-2 -13 -11 -23 -22 -24 -18 -3 -18 -3 0 5 13 6 16 11 8 16 -6 3 -9 13 -6 21 9 22 24 8 20 -18z m-376 1 c0 -7 -19 -33 -41 -58 -35 -39 -38 -41 -23 -12 10 17 21 32 25 32 3 0 11 11 17 25 12 27 22 33 22 13z m247 -204 c-3 -3 -12 -4 -19 -1 -8 3 -5 6 6 6 11 1 17 -2 13 -5z"/>
<path d="M1779 1643 c-13 -16 -12 -17 4 -4 16 13 21 21 13 21 -2 0 -10 -8 -17 -17z"/>
<path d="M1750 1590 c-6 -11 -8 -20 -6 -20 3 0 10 9 16 20 6 11 8 20 6 20 -3 0 -10 -9 -16 -20z"/>
<path d="M1670 1575 c-7 -9 -10 -18 -7 -21 3 -3 10 4 17 15 13 25 8 27 -10 6z"/>
<path d="M1270 1645 c-7 -9 -8 -15 -2 -15 5 0 12 7 16 15 3 8 4 15 2 15 -2 0 -9 -7 -16 -15z"/>
<path d="M1255 3620 c-3 -6 -4 -18 -1 -28 5 -16 -33 -143 -54 -182 -5 -8 -4 -22 1 -31 6 -12 4 -21 -6 -29 -11 -9 -15 -34 -15 -91 0 -69 2 -80 23 -94 l22 -17 -25 7 c-18 5 -22 4 -15 -4 6 -6 26 -8 46 -5 52 9 89 80 58 111 -7 7 -8 26 -4 55 5 23 10 36 13 28 3 -8 11 -20 18 -27 19 -20 58 68 58 132 0 27 3 53 8 56 5 3 10 25 11 49 l2 44 -44 8 c-25 4 -49 12 -55 18 -13 13 -33 13 -41 0z"/>
<path d="M1745 3399 c-40 -35 -76 -94 -95 -152 -11 -36 -10 -40 15 -67 17 -17 23 -30 16 -34 -6 -4 -11 -40 -11 -85 0 -85 6 -95 57 -110 28 -8 30 -6 54 45 18 40 29 54 45 54 27 0 69 62 85 124 6 26 15 49 20 52 12 7 12 94 0 94 -5 0 -14 14 -21 30 -17 42 -65 80 -100 80 -19 0 -43 -12 -65 -31z"/>
<path d="M2565 1471 c-55 -23 -138 -154 -151 -240 -3 -20 -7 -45 -9 -56 -2 -11 -4 -32 -4 -47 -1 -23 -12 -33 -78 -69 -95 -52 -184 -135 -213 -197 -29 -60 -25 -175 8 -238 41 -80 134 -144 208 -144 l37 0 -7 -96 c-7 -106 -24 -150 -62 -164 -33 -13 -105 -13 -124 0 -9 6 -10 10 -3 10 6 0 25 12 42 26 62 52 29 144 -50 144 -79 0 -108 -97 -49 -164 76 -86 213 -70 255 29 7 17 16 71 20 120 l7 91 42 13 c55 17 100 52 120 94 20 43 21 138 1 176 -19 38 -71 81 -106 88 -28 5 -29 7 -29 72 0 65 1 67 33 86 122 72 187 188 187 333 0 119 -21 155 -75 133z m45 -131 c24 -44 -32 -136 -112 -186 -21 -13 -42 -24 -48 -24 -17 0 -11 75 9 122 39 91 123 140 151 88z m-222 -426 c-3 -55 -3 -56 -42 -69 -22 -8 -55 -29 -74 -48 -28 -29 -36 -45 -40 -86 -5 -53 11 -72 22 -27 8 32 71 86 101 86 29 0 29 -7 18 -172 l-6 -98 -29 0 c-63 0 -174 80 -197 143 -27 71 -2 155 66 219 34 34 155 107 176 108 4 0 7 -25 5 -56z m83 -182 c27 -24 33 -37 37 -85 4 -46 1 -61 -18 -86 -21 -30 -67 -61 -90 -61 -7 0 -9 13 -6 33 3 17 8 76 12 130 7 109 13 116 65 69z"/>
<path d="M295 961 l30 -6 0 -160 0 -160 -30 -6 c-16 -4 54 -7 158 -8 l187 -1 0 88 0 87 -29 -51 c-39 -67 -93 -114 -132 -114 l-29 0 2 162 3 162 25 7 c14 4 -29 7 -95 7 -66 0 -106 -3 -90 -7z"/>
<path d="M915 963 c11 -3 23 -10 27 -17 4 -6 8 -74 8 -151 0 -142 -3 -157 -30 -168 -8 -3 21 -5 65 -5 44 0 74 2 68 5 -8 3 -13 23 -13 49 0 52 11 51 40 -6 15 -28 16 -40 7 -43 -6 -3 26 -5 73 -6 57 0 78 3 64 9 -12 5 -42 42 -67 83 l-45 75 26 25 c15 13 34 27 42 30 8 3 -7 5 -35 5 -27 0 -42 -2 -32 -5 25 -6 22 -13 -28 -68 l-44 -50 -1 123 0 122 -72 -1 c-40 -1 -64 -4 -53 -6z"/>
<path d="M1514 956 c-3 -8 -4 -25 -2 -38 2 -19 9 -23 37 -23 66 0 68 67 2 73 -21 2 -33 -2 -37 -12z"/>
<path d="M2640 950 c-16 -30 4 -60 40 -60 36 0 56 30 40 60 -7 13 -21 20 -40 20 -19 0 -33 -7 -40 -20z"/>
<path d="M2852 913 c-12 -17 -39 -42 -60 -55 -28 -17 -33 -24 -19 -26 15 -3 17 -15 17 -87 0 -74 3 -87 22 -105 28 -26 109 -28 129 -3 13 15 12 15 -8 2 -36 -22 -48 0 -51 101 l-4 90 31 0 c17 0 31 5 31 10 0 6 -13 10 -29 10 -28 0 -30 2 -33 48 l-3 47 -23 -32z"/>
<path d="M713 830 c-40 -24 -53 -48 -53 -100 0 -34 6 -48 34 -76 30 -30 40 -34 88 -34 57 0 90 16 109 53 10 18 7 17 -14 -5 -32 -34 -76 -37 -103 -7 -25 27 -28 164 -4 179 12 8 11 10 -5 10 -11 0 -34 -9 -52 -20z"/>
<path d="M799 836 c7 -8 13 -31 14 -50 2 -35 3 -36 45 -36 46 0 49 7 28 49 -14 27 -53 51 -83 51 -12 0 -13 -3 -4 -14z"/>
<path d="M1273 830 c-40 -24 -53 -48 -53 -100 0 -34 6 -48 34 -76 30 -30 40 -34 89 -34 45 0 61 5 86 26 17 14 31 30 31 34 0 5 -13 -5 -29 -21 -31 -31 -51 -35 -81 -19 -42 23 -51 150 -13 192 15 17 15 18 -8 18 -13 0 -38 -9 -56 -20z"/>
<path d="M1376 812 c2 -57 3 -60 24 -67 63 -20 86 49 28 85 -46 28 -53 25 -52 -18z"/>
<path d="M1488 840 c21 -9 22 -14 22 -142 0 -144 -5 -178 -26 -178 -9 0 -11 10 -7 35 5 30 3 35 -21 41 -53 13 -77 -42 -31 -72 41 -26 103 -13 142 30 l33 36 0 130 0 130 -67 -1 c-51 0 -62 -3 -45 -9z"/>
<path d="M1683 830 c-40 -24 -53 -48 -53 -100 0 -34 6 -48 34 -76 30 -30 40 -34 88 -34 57 0 90 16 109 53 10 18 7 17 -14 -5 -32 -34 -76 -37 -103 -7 -25 27 -28 164 -4 179 12 8 11 10 -5 10 -11 0 -34 -9 -52 -20z"/>
<path d="M1769 836 c7 -8 13 -31 14 -50 2 -35 3 -36 45 -36 46 0 49 7 28 49 -14 27 -53 51 -83 51 -12 0 -13 -3 -4 -14z"/>
<path d="M2610 843 c25 -10 30 -25 30 -108 0 -83 -5 -98 -30 -108 -8 -3 23 -5 70 -5 47 0 77 2 68 5 -16 4 -18 18 -18 114 l0 109 -67 -1 c-38 0 -61 -3 -53 -6z"/>
<path d="M3013 830 c-39 -23 -44 -57 -11 -69 46 -17 91 15 70 50 -7 11 -10 24 -7 29 10 17 -18 11 -52 -10z"/>
<path d="M3099 832 c29 -54 4 -92 -58 -92 -59 0 -93 -67 -53 -103 24 -22 95 -22 113 -1 11 13 14 13 21 1 6 -12 34 -15 140 -15 73 0 125 2 115 5 -16 4 -18 16 -17 96 1 51 1 100 1 110 -1 14 -11 17 -68 16 -38 0 -61 -3 -53 -6 25 -10 30 -25 30 -105 0 -85 -5 -108 -26 -108 -10 0 -13 8 -9 28 5 25 5 26 -5 4 -18 -41 -30 -13 -30 67 0 89 -12 108 -75 118 -35 6 -37 5 -26 -15z m0 -188 c-9 -11 -15 -12 -25 -3 -21 18 -17 66 9 92 l22 22 3 -48 c2 -27 -2 -55 -9 -63z"/>
<path d="M3377 843 c-11 -10 -8 -25 3 -18 7 4 9 -2 4 -19 -8 -34 10 -56 47 -56 22 0 32 7 41 25 16 37 -12 75 -56 75 -18 0 -36 -3 -39 -7z"/>
<path d="M3485 841 c13 -6 36 -47 68 -124 42 -99 47 -118 37 -137 -7 -12 -7 -20 -2 -16 6 3 34 65 64 137 36 90 59 134 73 140 15 6 8 8 -25 8 -34 0 -41 -2 -28 -9 15 -9 15 -14 1 -55 -8 -25 -18 -47 -23 -50 -8 -5 -40 65 -40 89 0 8 6 17 13 19 6 3 -26 5 -73 6 -53 0 -78 -3 -65 -8z"/>
<path d="M3482 588 c-18 -18 -14 -56 7 -68 28 -14 46 -13 68 8 10 9 12 13 5 7 -12 -8 -14 -6 -8 13 14 42 -41 71 -72 40z"/>
<path d="M360 570 c0 -7 175 -10 505 -10 330 0 505 3 505 10 0 7 -175 10 -505 10 -330 0 -505 -3 -505 -10z"/>
<path d="M1640 560 c0 -6 85 -10 235 -10 150 0 235 4 235 10 0 6 -85 10 -235 10 -150 0 -235 -4 -235 -10z"/>
<path d="M2600 560 c0 -7 145 -10 415 -10 270 0 415 3 415 10 0 7 -145 10 -415 10 -270 0 -415 -3 -415 -10z"/>
</g>
</svg>